<svg width="20" height="20" viewBox="0 0 20 20" fill="none" xmlns="http://www.w3.org/2000/svg">
<path fill-rule="evenodd" clip-rule="evenodd" d="M14.8415 19.7526C15.2571 20.1162 15.8889 20.0741 16.2526 19.6585L19.7526 15.6585C20.0825 15.2815 20.0825 14.7185 19.7526 14.3415L16.2526 10.3415C15.8889 9.92581 15.2571 9.88371 14.8415 10.2474C14.4259 10.6111 14.3837 11.2429 14.7474 11.6585L16.7962 14H13.5C7.14872 14 2 8.85131 2 2.50003V1C2 0.44771 1.55228 0 1 0C0.44772 0 0 0.44771 0 1V2.50003C0 9.95591 6.04416 16 13.5 16H16.7962L14.7474 18.3415C14.3837 18.7571 14.4259 19.3889 14.8415 19.7526Z" fill="white"/>
</svg>
